# xmcd
#
# Track frame offsets: 
#        150
#        13168
#        40663
#        50388
#        63155
#        77926
#        89902
#        104575
#        116325
#        140146
#        172164
#        184435
#        195053
#        211509
#        228803
#        241735
#        273899
#        296921
#        319493
#        338485
#
# Disc length: 4743 seconds
#
# Revision: 1
# Processed by: cddbd v1.5.2PL0 Copyright (c) Steve Scherf et al.
# Submitted via: ExactAudioCopy v1.0b3
#
DISCID=20128514
DTITLE=Jazz Emotions - Guitare
DYEAR=2008
DGENRE=Jazz
TTITLE0=Django Reinhardt - Night and day
TTITLE1=Kenny Burrell -Delilah
TTITLE2=Chet Atkins - Mountain Melody
TTITLE3=Charlie Christian - Solo flight
TTITLE4=Django Reinhardt - Nuages
TTITLE5=Al Casey and Fats Waller - Buck Jumin'
TTITLE6=Russell Malone - It's the talk of the town
TTITLE7=John Pizzarelli - I know that You know
TTITLE8=Tal Farlow - Yardbird suite
TTITLE9=Barney Kessel - Shufflin' the blues
TTITLE10=Charlie Byrd - How insenstive
TTITLE11=Mundel Lowe - Peter Gunn
TTITLE12=Jimmy Raney - Body and soul
TTITLE13=Jim Hall featuring Chet Baker - Two's blues
TTITLE14=René Thomas - Smoke gets in your eyes
TTITLE15=George Benson - Take five
TTITLE16=Jim Hall with Paul Desmond - The night has a thousand eyes
TTITLE17=Lee Ritenour - Fly by night
TTITLE18=Eric Gale - Thumper
TTITLE19=John Pizzarelli - Herats like mine are broken everyday
EXTD=YEAR: 2008
EXTT0=
EXTT1=
EXTT2=
EXTT3=
EXTT4=
EXTT5=
EXTT6=
EXTT7=
EXTT8=
EXTT9=
EXTT10=
EXTT11=
EXTT12=
EXTT13=
EXTT14=
EXTT15=
EXTT16=
EXTT17=
EXTT18=
EXTT19=
PLAYORDER=
